<mxfile host="Electron" agent="Mozilla/5.0 (Windows NT 10.0; Win64; x64) AppleWebKit/537.36 (KHTML, like Gecko) draw.io/26.0.15 Chrome/132.0.6834.196 Electron/34.2.0 Safari/537.36" version="26.0.15">
  <diagram name="1 oldal" id="CPL5aqb-7wDtBHIkJBE4">
    <mxGraphModel dx="2868" dy="2857" grid="1" gridSize="10" guides="1" tooltips="1" connect="1" arrows="1" fold="1" page="1" pageScale="1" pageWidth="827" pageHeight="1169" math="0" shadow="0">
      <root>
        <mxCell id="0" />
        <mxCell id="1" parent="0" />
        <mxCell id="kGeJc9t-vDzQoc5OFPi2-4" value="" style="edgeStyle=orthogonalEdgeStyle;rounded=0;orthogonalLoop=1;jettySize=auto;html=1;" edge="1" parent="1" source="kGeJc9t-vDzQoc5OFPi2-1" target="kGeJc9t-vDzQoc5OFPi2-3">
          <mxGeometry relative="1" as="geometry" />
        </mxCell>
        <mxCell id="kGeJc9t-vDzQoc5OFPi2-6" value="" style="edgeStyle=orthogonalEdgeStyle;rounded=0;orthogonalLoop=1;jettySize=auto;html=1;" edge="1" parent="1" source="kGeJc9t-vDzQoc5OFPi2-1" target="kGeJc9t-vDzQoc5OFPi2-5">
          <mxGeometry relative="1" as="geometry" />
        </mxCell>
        <mxCell id="kGeJc9t-vDzQoc5OFPi2-1" value="&lt;font style=&quot;font-size: 34px;&quot;&gt;Metódus&lt;/font&gt;" style="rounded=1;whiteSpace=wrap;html=1;fillColor=#60a917;fontColor=#ffffff;strokeColor=#2D7600;" vertex="1" parent="1">
          <mxGeometry x="326" y="40" width="176" height="60" as="geometry" />
        </mxCell>
        <mxCell id="kGeJc9t-vDzQoc5OFPi2-8" value="" style="edgeStyle=orthogonalEdgeStyle;rounded=0;orthogonalLoop=1;jettySize=auto;html=1;" edge="1" parent="1" source="kGeJc9t-vDzQoc5OFPi2-3" target="kGeJc9t-vDzQoc5OFPi2-7">
          <mxGeometry relative="1" as="geometry" />
        </mxCell>
        <mxCell id="kGeJc9t-vDzQoc5OFPi2-3" value="&lt;font style=&quot;font-size: 25px;&quot;&gt;Eljárás&lt;/font&gt;" style="whiteSpace=wrap;html=1;fillColor=#1ba1e2;strokeColor=#006EAF;fontColor=#ffffff;rounded=1;" vertex="1" parent="1">
          <mxGeometry x="206" y="210" width="120" height="60" as="geometry" />
        </mxCell>
        <mxCell id="kGeJc9t-vDzQoc5OFPi2-13" value="" style="edgeStyle=orthogonalEdgeStyle;rounded=0;orthogonalLoop=1;jettySize=auto;html=1;" edge="1" parent="1" source="kGeJc9t-vDzQoc5OFPi2-5" target="kGeJc9t-vDzQoc5OFPi2-12">
          <mxGeometry relative="1" as="geometry" />
        </mxCell>
        <mxCell id="kGeJc9t-vDzQoc5OFPi2-5" value="&lt;font style=&quot;font-size: 23px;&quot;&gt;Függvény&lt;/font&gt;" style="whiteSpace=wrap;html=1;fillColor=#e3c800;strokeColor=#B09500;fontColor=#000000;rounded=1;" vertex="1" parent="1">
          <mxGeometry x="502" y="210" width="120" height="60" as="geometry" />
        </mxCell>
        <mxCell id="kGeJc9t-vDzQoc5OFPi2-11" style="edgeStyle=orthogonalEdgeStyle;rounded=0;orthogonalLoop=1;jettySize=auto;html=1;exitX=0.5;exitY=1;exitDx=0;exitDy=0;" edge="1" parent="1" source="kGeJc9t-vDzQoc5OFPi2-7" target="kGeJc9t-vDzQoc5OFPi2-10">
          <mxGeometry relative="1" as="geometry" />
        </mxCell>
        <mxCell id="kGeJc9t-vDzQoc5OFPi2-7" value="&lt;font style=&quot;font-size: 25px;&quot;&gt;Adat lekérése adatbázisból&lt;/font&gt;" style="whiteSpace=wrap;html=1;fillColor=#0050ef;strokeColor=#001DBC;fontColor=#ffffff;rounded=1;" vertex="1" parent="1">
          <mxGeometry x="30" y="350" width="316" height="60" as="geometry" />
        </mxCell>
        <mxCell id="kGeJc9t-vDzQoc5OFPi2-20" style="edgeStyle=orthogonalEdgeStyle;rounded=0;orthogonalLoop=1;jettySize=auto;html=1;exitX=0.5;exitY=1;exitDx=0;exitDy=0;entryX=0.5;entryY=0;entryDx=0;entryDy=0;" edge="1" parent="1" source="kGeJc9t-vDzQoc5OFPi2-10" target="kGeJc9t-vDzQoc5OFPi2-16">
          <mxGeometry relative="1" as="geometry">
            <Array as="points">
              <mxPoint x="188" y="560" />
              <mxPoint x="401" y="560" />
            </Array>
          </mxGeometry>
        </mxCell>
        <mxCell id="kGeJc9t-vDzQoc5OFPi2-10" value="&lt;font style=&quot;font-size: 25px; color: rgb(255, 255, 255);&quot;&gt;Visszatér: lekért adat&lt;/font&gt;" style="whiteSpace=wrap;html=1;fillColor=#0050ef;strokeColor=#001DBC;fontColor=#ffffff;rounded=1;" vertex="1" parent="1">
          <mxGeometry x="63" y="460" width="250" height="60" as="geometry" />
        </mxCell>
        <mxCell id="kGeJc9t-vDzQoc5OFPi2-15" style="edgeStyle=orthogonalEdgeStyle;rounded=0;orthogonalLoop=1;jettySize=auto;html=1;exitX=0.5;exitY=1;exitDx=0;exitDy=0;" edge="1" parent="1" source="kGeJc9t-vDzQoc5OFPi2-12" target="kGeJc9t-vDzQoc5OFPi2-14">
          <mxGeometry relative="1" as="geometry" />
        </mxCell>
        <mxCell id="kGeJc9t-vDzQoc5OFPi2-12" value="&lt;font style=&quot;font-size: 24px;&quot;&gt;Tábla létrehozása&lt;/font&gt;" style="whiteSpace=wrap;html=1;fillColor=#f0a30a;strokeColor=#BD7000;fontColor=#000000;rounded=1;" vertex="1" parent="1">
          <mxGeometry x="470" y="350" width="322" height="60" as="geometry" />
        </mxCell>
        <mxCell id="kGeJc9t-vDzQoc5OFPi2-19" style="edgeStyle=orthogonalEdgeStyle;rounded=0;orthogonalLoop=1;jettySize=auto;html=1;exitX=0.5;exitY=1;exitDx=0;exitDy=0;" edge="1" parent="1" source="kGeJc9t-vDzQoc5OFPi2-14" target="kGeJc9t-vDzQoc5OFPi2-16">
          <mxGeometry relative="1" as="geometry" />
        </mxCell>
        <mxCell id="kGeJc9t-vDzQoc5OFPi2-14" value="&lt;font style=&quot;font-size: 24px; color: rgb(0, 0, 0);&quot;&gt;Oszlop létrehozása&lt;/font&gt;" style="whiteSpace=wrap;html=1;fillColor=#f0a30a;strokeColor=#BD7000;fontColor=#000000;rounded=1;" vertex="1" parent="1">
          <mxGeometry x="470" y="450" width="322" height="60" as="geometry" />
        </mxCell>
        <mxCell id="kGeJc9t-vDzQoc5OFPi2-16" value="&lt;font style=&quot;font-size: 34px;&quot;&gt;Kilépés&lt;/font&gt;" style="rounded=1;whiteSpace=wrap;html=1;fillColor=#e51400;fontColor=#ffffff;strokeColor=#B20000;" vertex="1" parent="1">
          <mxGeometry x="313" y="610" width="176" height="60" as="geometry" />
        </mxCell>
        <mxCell id="kGeJc9t-vDzQoc5OFPi2-23" style="edgeStyle=orthogonalEdgeStyle;rounded=0;orthogonalLoop=1;jettySize=auto;html=1;exitX=0.5;exitY=0;exitDx=0;exitDy=0;entryX=0.5;entryY=0;entryDx=0;entryDy=0;" edge="1" parent="1" source="kGeJc9t-vDzQoc5OFPi2-21" target="kGeJc9t-vDzQoc5OFPi2-1">
          <mxGeometry relative="1" as="geometry">
            <Array as="points">
              <mxPoint x="414" y="730" />
              <mxPoint x="920" y="730" />
              <mxPoint x="920" y="-50" />
              <mxPoint x="414" y="-50" />
            </Array>
          </mxGeometry>
        </mxCell>
        <mxCell id="kGeJc9t-vDzQoc5OFPi2-21" value="&lt;font style=&quot;font-size: 34px;&quot;&gt;Metódus hívás&lt;/font&gt;" style="rounded=1;whiteSpace=wrap;html=1;fillColor=#60a917;fontColor=#ffffff;strokeColor=#2D7600;" vertex="1" parent="1">
          <mxGeometry x="269" y="800" width="290" height="60" as="geometry" />
        </mxCell>
      </root>
    </mxGraphModel>
  </diagram>
</mxfile>
